<svg width="171" height="23" viewBox="0 0 171 23" fill="none" xmlns="http://www.w3.org/2000/svg">
<path d="M168.94 14.9597C168.94 16.3185 168.759 17.5701 168.395 18.7145C168.036 19.8553 167.498 20.9107 166.782 21.8807H164.924C165.204 21.521 165.462 21.0814 165.698 20.5619C165.937 20.0424 166.145 19.472 166.319 18.8507C166.497 18.2295 166.635 17.5864 166.733 16.9215C166.835 16.2567 166.886 15.6027 166.886 14.9597C166.886 14.0986 166.798 13.2267 166.624 12.3439C166.453 11.461 166.219 10.6418 165.921 9.88608C165.627 9.13039 165.294 8.51277 164.924 8.0332H166.782C167.498 9.00324 168.036 10.0605 168.395 11.2049C168.759 12.3457 168.94 13.5973 168.94 14.9597Z" fill="black"/>
<path d="M159.016 19.6788C158.486 19.6788 158.008 19.5844 157.583 19.3955C157.161 19.2029 156.827 18.9195 156.58 18.5453C156.337 18.1711 156.215 17.7097 156.215 17.1611C156.215 16.6888 156.302 16.2982 156.476 15.9894C156.651 15.6806 156.889 15.4336 157.19 15.2483C157.492 15.063 157.832 14.9231 158.209 14.8287C158.591 14.7306 158.985 14.6597 159.392 14.6161C159.882 14.5653 160.28 14.5199 160.585 14.4799C160.891 14.4363 161.112 14.3709 161.25 14.2837C161.392 14.1929 161.463 14.053 161.463 13.8641V13.8314C161.463 13.4208 161.341 13.1029 161.098 12.8777C160.854 12.6524 160.504 12.5398 160.046 12.5398C159.563 12.5398 159.179 12.6452 158.896 12.8559C158.616 13.0666 158.427 13.3155 158.329 13.6025L156.487 13.3409C156.633 12.8323 156.872 12.4072 157.207 12.0657C157.541 11.7206 157.95 11.4626 158.433 11.2919C158.916 11.1175 159.45 11.0303 160.035 11.0303C160.438 11.0303 160.84 11.0775 161.239 11.172C161.639 11.2664 162.004 11.4226 162.335 11.6406C162.665 11.855 162.931 12.1474 163.13 12.518C163.334 12.8886 163.436 13.3518 163.436 13.9077V19.5099H161.539V18.36H161.474C161.354 18.5925 161.185 18.8105 160.967 19.014C160.753 19.2138 160.482 19.3755 160.155 19.499C159.832 19.6189 159.452 19.6788 159.016 19.6788ZM159.528 18.2292C159.924 18.2292 160.268 18.1511 160.558 17.9949C160.849 17.835 161.072 17.6243 161.229 17.3627C161.388 17.1012 161.468 16.816 161.468 16.5071V15.5208C161.407 15.5716 161.301 15.6189 161.152 15.6625C161.007 15.7061 160.843 15.7442 160.662 15.7769C160.48 15.8096 160.3 15.8387 160.122 15.8641C159.944 15.8895 159.79 15.9113 159.659 15.9295C159.365 15.9695 159.101 16.0348 158.869 16.1257C158.636 16.2165 158.453 16.3437 158.318 16.5071C158.184 16.667 158.117 16.8741 158.117 17.1284C158.117 17.4917 158.249 17.766 158.515 17.9513C158.78 18.1366 159.118 18.2292 159.528 18.2292Z" fill="black"/>
<path d="M154.957 11.1393V12.6651H150.145V11.1393H154.957ZM151.333 9.13379H153.305V16.9922C153.305 17.2574 153.345 17.4608 153.425 17.6025C153.509 17.7406 153.618 17.835 153.752 17.8859C153.887 17.9368 154.036 17.9622 154.199 17.9622C154.323 17.9622 154.435 17.9531 154.537 17.9349C154.642 17.9168 154.722 17.9004 154.777 17.8859L155.109 19.4281C155.004 19.4645 154.853 19.5044 154.657 19.548C154.464 19.5916 154.228 19.6171 153.948 19.6243C153.454 19.6389 153.009 19.5644 152.613 19.4009C152.217 19.2338 151.903 18.9758 151.67 18.627C151.442 18.2783 151.329 17.8423 151.333 17.3191V9.13379Z" fill="black"/>
<path d="M145.386 19.6734C144.546 19.6734 143.822 19.499 143.211 19.1502C142.605 18.7978 142.138 18.3001 141.811 17.657C141.484 17.0103 141.32 16.2492 141.32 15.3736C141.32 14.5126 141.484 13.7569 141.811 13.1066C142.141 12.4526 142.603 11.944 143.195 11.5807C143.787 11.2137 144.483 11.0303 145.282 11.0303C145.798 11.0303 146.285 11.1138 146.743 11.281C147.204 11.4444 147.611 11.6988 147.963 12.0439C148.319 12.389 148.599 12.8287 148.803 13.3627C149.006 13.8931 149.108 14.5253 149.108 15.2592V15.8641H142.247V14.5344H147.217C147.213 14.1565 147.131 13.8205 146.972 13.5262C146.812 13.2283 146.588 12.994 146.301 12.8232C146.018 12.6524 145.687 12.5671 145.309 12.5671C144.906 12.5671 144.552 12.6652 144.247 12.8613C143.942 13.0539 143.704 13.3082 143.533 13.6243C143.366 13.9367 143.28 14.2801 143.277 14.6543V15.815C143.277 16.3019 143.366 16.7197 143.544 17.0685C143.722 17.4136 143.971 17.6788 144.29 17.8641C144.61 18.0458 144.984 18.1366 145.413 18.1366C145.7 18.1366 145.96 18.0966 146.192 18.0167C146.425 17.9331 146.626 17.8114 146.797 17.6516C146.968 17.4917 147.097 17.2937 147.184 17.0576L149.026 17.2646C148.91 17.7515 148.688 18.1766 148.361 18.5399C148.038 18.8995 147.624 19.1793 147.119 19.3791C146.614 19.5753 146.036 19.6734 145.386 19.6734Z" fill="black"/>
<path d="M132.102 19.5104V8.34961H134.074V12.524H134.156C134.258 12.3206 134.401 12.1044 134.587 11.8755C134.772 11.643 135.023 11.445 135.339 11.2815C135.655 11.1144 136.058 11.0308 136.548 11.0308C137.195 11.0308 137.778 11.1961 138.298 11.5267C138.821 11.8537 139.235 12.3387 139.54 12.9818C139.849 13.6212 140.004 14.406 140.004 15.336C140.004 16.2552 139.853 17.0363 139.551 17.6794C139.25 18.3224 138.839 18.8129 138.32 19.1508C137.8 19.4887 137.211 19.6576 136.554 19.6576C136.074 19.6576 135.677 19.5777 135.36 19.4178C135.044 19.2579 134.79 19.0654 134.597 18.8401C134.409 18.6113 134.261 18.3951 134.156 18.1916H134.042V19.5104H132.102ZM134.036 15.3251C134.036 15.8665 134.112 16.3406 134.265 16.7475C134.421 17.1544 134.645 17.4723 134.935 17.7012C135.23 17.9264 135.586 18.039 136.003 18.039C136.439 18.039 136.805 17.9228 137.099 17.6903C137.393 17.4541 137.615 17.1326 137.764 16.7257C137.916 16.3152 137.993 15.8483 137.993 15.3251C137.993 14.8056 137.918 14.3442 137.769 13.9409C137.62 13.5377 137.399 13.2216 137.104 12.9927C136.81 12.7638 136.443 12.6494 136.003 12.6494C135.582 12.6494 135.224 12.7602 134.93 12.9818C134.636 13.2034 134.412 13.514 134.26 13.9137C134.111 14.3133 134.036 14.7838 134.036 15.3251Z" fill="black"/>
<path d="M126.465 14.9597C126.465 13.5973 126.645 12.3457 127.004 11.2049C127.368 10.0605 127.907 9.00324 128.623 8.0332H130.481C130.205 8.39288 129.947 8.8343 129.707 9.35746C129.468 9.87699 129.259 10.4474 129.081 11.0686C128.906 11.6863 128.768 12.3275 128.666 12.9924C128.568 13.6572 128.519 14.313 128.519 14.9597C128.519 15.8207 128.605 16.6927 128.775 17.5755C128.95 18.4583 129.184 19.2758 129.478 20.0278C129.776 20.7835 130.111 21.4011 130.481 21.8807H128.623C127.907 20.9107 127.368 19.8553 127.004 18.7145C126.645 17.5701 126.465 16.3185 126.465 14.9597Z" fill="black"/>
<g clip-path="url(#clip0_1947_9605)">
<path d="M7.69517 21.7978H0V0.40918H7.49033C9.59704 0.40918 11.45 0.862732 13.0496 1.76976C14.6489 2.67678 15.9025 3.93502 16.8095 5.54416C17.7165 7.15352 18.17 9.02154 18.17 11.1474C18.17 13.2349 17.7261 15.0827 16.8387 16.6919C15.9509 18.3013 14.722 19.5548 13.1521 20.4518C11.5817 21.3492 9.76251 21.7978 7.69517 21.7978ZM3.74528 2.13549V20.1008L1.96035 18.3451H7.34411C8.76774 18.3451 9.9967 18.0525 11.0308 17.4674C12.0644 16.8822 12.8544 16.0533 13.4009 14.9802C13.9467 13.9077 14.2201 12.6299 14.2201 11.1473C14.2201 9.62574 13.9371 8.32371 13.3716 7.24119C12.8056 6.1586 11.9963 5.32456 10.9431 4.73939C9.88978 4.1543 8.62145 3.86172 7.13935 3.86172H1.96027L3.74528 2.13549Z" fill="black"/>
<path d="M21.8583 21.7978H17.9961L25.7205 0.40918H29.5535L37.2779 21.7978H33.3279L31.6016 16.8529H23.6138L21.8583 21.7978ZM27.1541 6.78779L24.6964 13.693H30.5189L28.0612 6.78779C27.983 6.49521 27.8952 6.20255 27.7977 5.90996C27.7 5.61738 27.6415 5.36416 27.6223 5.14931C27.5829 5.34452 27.5198 5.59323 27.4321 5.89537C27.3443 6.19804 27.2515 6.49513 27.1541 6.78779Z" fill="black"/>
<path d="M38.2301 6.37774C38.2301 5.1296 38.552 4.02728 39.1957 3.07141C39.8395 2.11586 40.7318 1.3698 41.8729 0.833004C43.014 0.296833 44.3353 0.0283203 45.8376 0.0283203C47.2809 0.0283203 48.534 0.282157 49.5974 0.789132C50.6603 1.29665 51.4892 2.01802 52.0844 2.95424C52.6793 3.89054 52.9962 5.00248 53.0354 6.28992H49.2901C49.2509 5.37334 48.9195 4.65648 48.2954 4.13933C47.6709 3.62265 46.8324 3.364 45.7792 3.364C44.628 3.364 43.7062 3.62273 43.0141 4.13933C42.3215 4.6564 41.9754 5.36363 41.9754 6.26057C41.9754 7.02138 42.1848 7.62114 42.6045 8.06002C43.0237 8.4989 43.682 8.82572 44.5794 9.04019L47.9442 9.80101C49.7776 10.1914 51.1432 10.8594 52.0406 11.8053C52.9375 12.7515 53.3865 14.0245 53.3865 15.6236C53.3865 16.9306 53.0647 18.0814 52.421 19.0762C51.7772 20.071 50.8651 20.8367 49.6852 21.3731C48.5047 21.9092 47.125 22.1778 45.545 22.1778C44.0427 22.1778 42.726 21.9189 41.595 21.4024C40.4634 20.8857 39.5806 20.1589 38.9469 19.2226C38.3129 18.2863 37.9764 17.1844 37.9375 15.9162H41.6828C41.702 16.8138 42.0581 17.521 42.7508 18.0376C43.4429 18.5545 44.3842 18.813 45.5742 18.813C46.8223 18.813 47.8126 18.5545 48.5441 18.0376C49.2756 17.5209 49.6413 16.8333 49.6413 15.9747C49.6413 15.2337 49.446 14.6435 49.0561 14.2045C48.6656 13.7656 48.032 13.4585 47.1541 13.2829L43.7601 12.5222C41.946 12.1322 40.5708 11.425 39.6345 10.4008C38.6983 9.37688 38.2301 8.03579 38.2301 6.37774Z" fill="black"/>
<path d="M58.0829 21.7978H54.2207L61.9451 0.40918H65.7781L73.5025 21.7978H69.5525L67.8262 16.8529H59.8384L58.0829 21.7978ZM63.3787 6.78779L60.921 13.693H66.7435L64.2858 6.78779C64.2076 6.49521 64.1198 6.20255 64.0224 5.90996C63.9246 5.61738 63.8661 5.36416 63.8469 5.14931C63.8075 5.34452 63.7444 5.59323 63.6567 5.89537C63.5689 6.19804 63.4761 6.49513 63.3787 6.78779Z" fill="black"/>
<path d="M79.3117 21.7978H75.6836V0.40918H79.3117L86.217 17.4382L93.1221 0.40918H96.8088V21.7978H93.1806V12.5079C93.1806 11.7764 93.1902 11.1575 93.2099 10.6499C93.2292 10.1429 93.2487 9.69438 93.2684 9.30403C93.2876 8.914 93.3269 8.52412 93.3854 8.13362L87.9432 21.7977H84.4907L79.0776 8.16289C79.175 8.80661 79.2386 9.62581 79.2679 10.6206C79.2971 11.6154 79.3117 12.7858 79.3117 14.1318V21.7978Z" fill="black"/>
<path d="M106.977 22.1788C105.553 22.1788 104.29 21.8518 103.188 21.1985C102.086 20.5453 101.222 19.6478 100.598 18.5067C99.9739 17.3655 99.6621 16.0539 99.6621 14.5713C99.6621 13.0695 99.9643 11.7433 100.569 10.5921C101.174 9.44139 102.022 8.53926 103.115 7.8856C104.207 7.23226 105.455 6.90527 106.86 6.90527C108.323 6.90527 109.581 7.21253 110.634 7.8269C111.688 8.44142 112.502 9.29494 113.078 10.3872C113.653 11.4798 113.941 12.7865 113.941 14.3079V15.3905L101.535 15.4197L101.593 13.1375H110.4C110.4 12.1427 110.083 11.3431 109.449 10.7383C108.815 10.1339 107.962 9.83112 106.889 9.83112C106.05 9.83112 105.343 10.0068 104.768 10.3578C104.192 10.7089 103.759 11.2356 103.466 11.9378C103.173 12.64 103.027 13.4986 103.027 14.5126C103.027 16.0734 103.363 17.2534 104.036 18.0529C104.709 18.853 105.709 19.2527 107.035 19.2527C108.011 19.2527 108.815 19.0674 109.449 18.6966C110.083 18.3265 110.498 17.7997 110.693 17.1166H113.999C113.687 18.6966 112.912 19.9356 111.673 20.8325C110.434 21.7301 108.869 22.1788 106.977 22.1788Z" fill="black"/>
<path d="M110.528 0.298095L101.725 2.67773L102.49 5.50752L111.293 3.12788L110.528 0.298095Z" fill="black"/>
</g>
<defs>
<clipPath id="clip0_1947_9605">
<rect width="120.577" height="22.1494" fill="white" transform="translate(0 0.0283203)"/>
</clipPath>
</defs>
</svg>
