<svg width="762" height="282" viewBox="0 0 762 282" fill="none" xmlns="http://www.w3.org/2000/svg">
<path d="M589.133 200.948V269.007H574.977V200.948H589.133Z" fill="black"/>
<path d="M537.12 269.971C533.863 269.971 530.961 269.406 528.413 268.276C525.866 267.124 523.85 265.43 522.365 263.192C520.903 260.932 520.172 258.119 520.172 254.751C520.172 251.915 520.692 249.534 521.734 247.606C522.775 245.679 524.193 244.128 525.987 242.954C527.782 241.78 529.82 240.893 532.102 240.295C534.406 239.697 536.821 239.276 539.347 239.032C542.315 238.722 544.708 238.434 546.525 238.168C548.341 237.88 549.66 237.459 550.479 236.906C551.299 236.352 551.709 235.532 551.709 234.446V234.247C551.709 232.142 551.044 230.514 549.715 229.362C548.408 228.21 546.547 227.634 544.132 227.634C541.584 227.634 539.557 228.199 538.051 229.329C536.544 230.436 535.547 231.832 535.06 233.516L521.966 232.453C522.631 229.351 523.938 226.67 525.888 224.41C527.837 222.129 530.352 220.378 533.431 219.16C536.533 217.919 540.122 217.299 544.199 217.299C547.034 217.299 549.748 217.631 552.34 218.296C554.955 218.96 557.27 219.991 559.286 221.386C561.324 222.782 562.93 224.577 564.104 226.77C565.279 228.941 565.866 231.544 565.866 234.579V269.008H552.44V261.929H552.041C551.222 263.524 550.125 264.931 548.751 266.15C547.378 267.346 545.727 268.288 543.8 268.974C541.872 269.639 539.646 269.971 537.12 269.971ZM541.174 260.201C543.257 260.201 545.096 259.791 546.691 258.972C548.286 258.13 549.538 257 550.446 255.582C551.354 254.164 551.809 252.558 551.809 250.763V245.347C551.366 245.635 550.756 245.9 549.981 246.144C549.228 246.366 548.375 246.576 547.422 246.775C546.469 246.953 545.517 247.119 544.564 247.274C543.611 247.407 542.747 247.529 541.972 247.64C540.31 247.883 538.859 248.271 537.619 248.803C536.378 249.334 535.414 250.054 534.727 250.963C534.041 251.849 533.697 252.957 533.697 254.286C533.697 256.213 534.395 257.687 535.791 258.706C537.209 259.703 539.003 260.201 541.174 260.201Z" fill="black"/>
<path d="M491.768 270.005C486.517 270.005 481.998 268.941 478.209 266.814C474.443 264.665 471.541 261.63 469.503 257.709C467.464 253.765 466.445 249.102 466.445 243.718C466.445 238.468 467.464 233.859 469.503 229.894C471.541 225.928 474.41 222.837 478.11 220.622C481.832 218.407 486.196 217.299 491.203 217.299C494.571 217.299 497.705 217.842 500.608 218.927C503.532 219.991 506.08 221.597 508.251 223.746C510.444 225.895 512.15 228.598 513.369 231.854C514.587 235.089 515.196 238.877 515.196 243.22V247.108H472.095V238.335H501.87C501.87 236.296 501.427 234.491 500.541 232.918C499.655 231.345 498.425 230.115 496.852 229.229C495.302 228.321 493.496 227.867 491.436 227.867C489.287 227.867 487.381 228.365 485.72 229.362C484.08 230.337 482.795 231.655 481.865 233.317C480.934 234.956 480.458 236.784 480.436 238.8V247.141C480.436 249.667 480.901 251.849 481.832 253.688C482.784 255.527 484.125 256.944 485.853 257.941C487.581 258.938 489.63 259.437 492.001 259.437C493.574 259.437 495.014 259.215 496.321 258.772C497.628 258.329 498.747 257.664 499.677 256.778C500.608 255.892 501.317 254.807 501.804 253.522L514.897 254.386C514.233 257.532 512.87 260.279 510.81 262.627C508.772 264.953 506.135 266.77 502.901 268.077C499.688 269.362 495.977 270.005 491.768 270.005Z" fill="black"/>
<path d="M434.463 269.008V217.964H448.188V226.87H448.719C449.65 223.702 451.212 221.309 453.405 219.692C455.598 218.052 458.124 217.232 460.982 217.232C461.691 217.232 462.455 217.277 463.275 217.365C464.095 217.454 464.815 217.576 465.435 217.731V230.293C464.77 230.093 463.851 229.916 462.677 229.761C461.503 229.606 460.428 229.528 459.453 229.528C457.371 229.528 455.51 229.982 453.87 230.891C452.253 231.777 450.968 233.018 450.015 234.613C449.085 236.208 448.62 238.047 448.62 240.129V269.008H434.463Z" fill="black"/>
<path d="M427.113 217.964V228.598H396.373V217.964H427.113ZM403.352 205.734H417.509V253.322C417.509 254.63 417.708 255.649 418.107 256.38C418.505 257.089 419.059 257.587 419.768 257.875C420.499 258.163 421.341 258.307 422.294 258.307C422.959 258.307 423.623 258.252 424.288 258.141C424.952 258.008 425.462 257.908 425.816 257.842L428.043 268.376C427.334 268.598 426.337 268.853 425.052 269.141C423.767 269.451 422.205 269.639 420.366 269.706C416.955 269.839 413.964 269.384 411.394 268.343C408.846 267.302 406.863 265.685 405.445 263.491C404.027 261.298 403.33 258.529 403.352 255.183V205.734Z" fill="black"/>
<path d="M357.776 239.498V269.008H343.619V217.963H357.111V226.969H357.709C358.839 224.001 360.734 221.652 363.392 219.924C366.051 218.174 369.274 217.299 373.063 217.299C376.607 217.299 379.698 218.074 382.334 219.625C384.971 221.176 387.02 223.391 388.482 226.271C389.944 229.129 390.675 232.541 390.675 236.507V269.008H376.519V239.032C376.541 235.909 375.743 233.472 374.126 231.721C372.509 229.949 370.282 229.063 367.446 229.063C365.541 229.063 363.857 229.473 362.395 230.292C360.955 231.112 359.825 232.309 359.005 233.882C358.208 235.432 357.798 237.304 357.776 239.498Z" fill="black"/>
<path d="M311.162 270.005C306 270.005 301.536 268.908 297.77 266.715C294.026 264.499 291.135 261.42 289.096 257.476C287.058 253.51 286.039 248.913 286.039 243.685C286.039 238.412 287.058 233.804 289.096 229.86C291.135 225.895 294.026 222.815 297.77 220.622C301.536 218.407 306 217.299 311.162 217.299C316.324 217.299 320.777 218.407 324.522 220.622C328.288 222.815 331.19 225.895 333.228 229.86C335.267 233.804 336.286 238.412 336.286 243.685C336.286 248.913 335.267 253.51 333.228 257.476C331.19 261.42 328.288 264.499 324.522 266.715C320.777 268.908 316.324 270.005 311.162 270.005ZM311.229 259.038C313.577 259.038 315.538 258.373 317.111 257.044C318.684 255.693 319.869 253.854 320.667 251.528C321.486 249.201 321.896 246.554 321.896 243.585C321.896 240.617 321.486 237.969 320.667 235.643C319.869 233.317 318.684 231.478 317.111 230.126C315.538 228.775 313.577 228.099 311.229 228.099C308.858 228.099 306.864 228.775 305.247 230.126C303.652 231.478 302.445 233.317 301.625 235.643C300.827 237.969 300.428 240.617 300.428 243.585C300.428 246.554 300.827 249.201 301.625 251.528C302.445 253.854 303.652 255.693 305.247 257.044C306.864 258.373 308.858 259.038 311.229 259.038Z" fill="black"/>
<path d="M204.607 200.948H222.353L241.096 246.675H241.894L260.636 200.948H278.382V269.007H264.425V224.709H263.86L246.247 268.675H236.743L219.13 224.543H218.565V269.007H204.607V200.948Z" fill="black"/>
<path d="M142.37 239.498V269.008H128.213V217.963H141.705V226.969H142.303C143.433 224.001 145.327 221.652 147.986 219.924C150.644 218.174 153.868 217.299 157.656 217.299C161.201 217.299 164.292 218.074 166.928 219.625C169.564 221.176 171.614 223.391 173.076 226.271C174.538 229.129 175.269 232.541 175.269 236.507V269.008H161.112V239.032C161.135 235.909 160.337 233.472 158.72 231.721C157.102 229.949 154.876 229.063 152.04 229.063C150.135 229.063 148.451 229.473 146.989 230.292C145.549 231.112 144.419 232.309 143.599 233.882C142.802 235.432 142.392 237.304 142.37 239.498Z" fill="black"/>
<path d="M104.586 269.008V217.963H118.743V269.008H104.586ZM111.698 211.383C109.593 211.383 107.788 210.686 106.281 209.29C104.797 207.872 104.055 206.177 104.055 204.205C104.055 202.256 104.797 200.583 106.281 199.187C107.788 197.769 109.593 197.061 111.698 197.061C113.803 197.061 115.597 197.769 117.082 199.187C118.588 200.583 119.341 202.256 119.341 204.205C119.341 206.177 118.588 207.872 117.082 209.29C115.597 210.686 113.803 211.383 111.698 211.383Z" fill="black"/>
<path d="M757.501 123.964V134.598H726.762V123.964H757.501ZM733.74 111.734H747.897V159.322C747.897 160.63 748.097 161.649 748.495 162.38C748.894 163.089 749.448 163.587 750.157 163.875C750.888 164.163 751.73 164.307 752.683 164.307C753.347 164.307 754.012 164.252 754.677 164.141C755.341 164.008 755.851 163.908 756.205 163.842L758.432 174.376C757.723 174.598 756.726 174.853 755.441 175.141C754.156 175.451 752.594 175.639 750.755 175.706C747.343 175.839 744.352 175.384 741.783 174.343C739.235 173.302 737.252 171.685 735.834 169.491C734.416 167.298 733.718 164.529 733.74 161.183V111.734Z" fill="black"/>
<path d="M691.371 175.008V123.964H705.096V132.87H705.628C706.558 129.702 708.12 127.309 710.313 125.692C712.507 124.052 715.032 123.232 717.89 123.232C718.599 123.232 719.363 123.277 720.183 123.365C721.003 123.454 721.723 123.576 722.343 123.731V136.293C721.679 136.093 720.759 135.916 719.585 135.761C718.411 135.606 717.336 135.528 716.361 135.528C714.279 135.528 712.418 135.982 710.779 136.891C709.161 137.777 707.876 139.018 706.924 140.613C705.993 142.208 705.528 144.047 705.528 146.129V175.008H691.371Z" fill="black"/>
<path d="M635.238 175.007H619.818L643.313 106.948H661.857L685.318 175.007H669.899L652.851 122.501H652.319L635.238 175.007ZM634.274 148.255H670.696V159.488H634.274V148.255Z" fill="black"/>
<path d="M596.103 123.964V134.598H565.363V123.964H596.103ZM572.342 111.734H586.499V159.322C586.499 160.63 586.698 161.649 587.097 162.38C587.496 163.089 588.05 163.587 588.759 163.875C589.49 164.163 590.331 164.307 591.284 164.307C591.949 164.307 592.613 164.252 593.278 164.141C593.943 164.008 594.452 163.908 594.807 163.842L597.033 174.376C596.324 174.598 595.327 174.853 594.042 175.141C592.757 175.451 591.196 175.639 589.357 175.706C585.945 175.839 582.954 175.384 580.384 174.343C577.836 173.302 575.854 171.685 574.436 169.491C573.018 167.298 572.32 164.529 572.342 161.183V111.734Z" fill="black"/>
<path d="M538.157 176.005C532.906 176.005 528.387 174.941 524.598 172.814C520.832 170.665 517.93 167.63 515.891 163.709C513.853 159.765 512.834 155.102 512.834 149.718C512.834 144.468 513.853 139.859 515.891 135.894C517.93 131.928 520.799 128.837 524.498 126.622C528.22 124.407 532.585 123.299 537.592 123.299C540.959 123.299 544.094 123.842 546.996 124.927C549.921 125.991 552.469 127.597 554.64 129.746C556.833 131.895 558.539 134.598 559.757 137.854C560.976 141.089 561.585 144.877 561.585 149.22V153.108H518.483V144.335H548.259C548.259 142.296 547.816 140.491 546.93 138.918C546.044 137.345 544.814 136.115 543.241 135.229C541.69 134.321 539.885 133.867 537.824 133.867C535.675 133.867 533.77 134.365 532.108 135.362C530.469 136.337 529.184 137.655 528.254 139.317C527.323 140.956 526.847 142.784 526.825 144.8V153.141C526.825 155.667 527.29 157.849 528.22 159.688C529.173 161.527 530.513 162.944 532.241 163.941C533.969 164.938 536.019 165.437 538.389 165.437C539.962 165.437 541.402 165.215 542.709 164.772C544.017 164.329 545.135 163.664 546.066 162.778C546.996 161.892 547.705 160.807 548.193 159.522L561.286 160.386C560.621 163.532 559.259 166.279 557.199 168.627C555.16 170.953 552.524 172.77 549.289 174.077C546.077 175.362 542.366 176.005 538.157 176.005Z" fill="black"/>
<path d="M484.1 176.005C478.849 176.005 474.33 174.941 470.541 172.814C466.775 170.665 463.873 167.63 461.835 163.709C459.796 159.765 458.777 155.102 458.777 149.718C458.777 144.468 459.796 139.859 461.835 135.894C463.873 131.928 466.742 128.837 470.442 126.622C474.164 124.407 478.528 123.299 483.535 123.299C486.903 123.299 490.037 123.842 492.94 124.927C495.864 125.991 498.412 127.597 500.583 129.746C502.776 131.895 504.482 134.598 505.701 137.854C506.919 141.089 507.528 144.877 507.528 149.22V153.108H464.427V144.335H494.203C494.203 142.296 493.759 140.491 492.873 138.918C491.987 137.345 490.757 136.115 489.184 135.229C487.634 134.321 485.828 133.867 483.768 133.867C481.619 133.867 479.713 134.365 478.052 135.362C476.412 136.337 475.127 137.655 474.197 139.317C473.266 140.956 472.79 142.784 472.768 144.8V153.141C472.768 155.667 473.233 157.849 474.164 159.688C475.116 161.527 476.457 162.944 478.185 163.941C479.913 164.938 481.962 165.437 484.333 165.437C485.906 165.437 487.346 165.215 488.653 164.772C489.96 164.329 491.079 163.664 492.009 162.778C492.94 161.892 493.649 160.807 494.136 159.522L507.229 160.386C506.565 163.532 505.202 166.279 503.142 168.627C501.104 170.953 498.467 172.77 495.233 174.077C492.02 175.362 488.309 176.005 484.1 176.005Z" fill="black"/>
<path d="M426.793 175.008V123.964H440.518V132.87H441.049C441.98 129.702 443.542 127.309 445.735 125.692C447.928 124.052 450.454 123.232 453.312 123.232C454.021 123.232 454.785 123.277 455.605 123.365C456.425 123.454 457.145 123.576 457.765 123.731V136.293C457.1 136.093 456.181 135.916 455.007 135.761C453.833 135.606 452.758 135.528 451.783 135.528C449.701 135.528 447.84 135.982 446.2 136.891C444.583 137.777 443.298 139.018 442.345 140.613C441.415 142.208 440.95 144.047 440.95 146.129V175.008H426.793Z" fill="black"/>
<path d="M419.443 123.964V134.598H388.703V123.964H419.443ZM395.682 111.734H409.839V159.322C409.839 160.63 410.038 161.649 410.437 162.38C410.836 163.089 411.389 163.587 412.098 163.875C412.829 164.163 413.671 164.307 414.624 164.307C415.289 164.307 415.953 164.252 416.618 164.141C417.283 164.008 417.792 163.908 418.147 163.842L420.373 174.376C419.664 174.598 418.667 174.853 417.382 175.141C416.097 175.451 414.535 175.639 412.697 175.706C409.285 175.839 406.294 175.384 403.724 174.343C401.176 173.302 399.193 171.685 397.775 169.491C396.358 167.298 395.66 164.529 395.682 161.183V111.734Z" fill="black"/>
<path d="M370.03 126.523C369.764 123.842 368.623 121.759 366.607 120.275C364.591 118.791 361.855 118.048 358.399 118.048C356.05 118.048 354.068 118.381 352.45 119.045C350.833 119.688 349.592 120.585 348.728 121.737C347.886 122.889 347.465 124.196 347.465 125.659C347.421 126.877 347.676 127.941 348.23 128.849C348.806 129.757 349.592 130.544 350.589 131.208C351.586 131.851 352.738 132.416 354.045 132.903C355.353 133.368 356.748 133.767 358.233 134.099L364.347 135.562C367.316 136.226 370.041 137.113 372.522 138.22C375.004 139.328 377.153 140.69 378.969 142.308C380.786 143.925 382.193 145.83 383.19 148.024C384.209 150.217 384.729 152.731 384.752 155.567C384.729 159.732 383.666 163.344 381.561 166.401C379.479 169.436 376.466 171.795 372.522 173.479C368.601 175.141 363.871 175.972 358.332 175.972C352.838 175.972 348.053 175.13 343.976 173.446C339.922 171.762 336.754 169.27 334.472 165.969C332.212 162.646 331.027 158.536 330.916 153.64H344.84C344.995 155.922 345.649 157.827 346.801 159.356C347.975 160.862 349.537 162.003 351.487 162.779C353.458 163.532 355.685 163.908 358.166 163.908C360.603 163.908 362.719 163.554 364.513 162.845C366.33 162.136 367.737 161.15 368.734 159.887C369.731 158.625 370.229 157.173 370.229 155.534C370.229 154.005 369.775 152.72 368.867 151.679C367.981 150.638 366.674 149.752 364.945 149.021C363.24 148.289 361.146 147.625 358.665 147.027L351.254 145.166C345.516 143.77 340.985 141.588 337.662 138.619C334.339 135.65 332.688 131.651 332.711 126.622C332.688 122.502 333.785 118.901 336.001 115.822C338.238 112.742 341.307 110.339 345.206 108.611C349.105 106.883 353.536 106.019 358.498 106.019C363.55 106.019 367.958 106.883 371.725 108.611C375.513 110.339 378.46 112.742 380.564 115.822C382.669 118.901 383.755 122.468 383.821 126.523H370.03Z" fill="black"/>
<path d="M306.279 123.964V134.598H274.775V123.964H306.279ZM281.987 175.008V120.275C281.987 116.575 282.707 113.507 284.147 111.07C285.609 108.633 287.603 106.805 290.129 105.587C292.654 104.368 295.523 103.759 298.736 103.759C300.907 103.759 302.89 103.925 304.684 104.257C306.501 104.59 307.852 104.889 308.738 105.155L306.213 115.789C305.659 115.611 304.972 115.445 304.152 115.29C303.355 115.135 302.535 115.058 301.693 115.058C299.611 115.058 298.16 115.545 297.34 116.52C296.52 117.472 296.11 118.813 296.11 120.541V175.008H281.987Z" fill="black"/>
<path d="M246.373 176.005C241.211 176.005 236.747 174.908 232.981 172.715C229.237 170.499 226.346 167.42 224.307 163.476C222.269 159.51 221.25 154.913 221.25 149.685C221.25 144.412 222.269 139.804 224.307 135.86C226.346 131.895 229.237 128.815 232.981 126.622C236.747 124.407 241.211 123.299 246.373 123.299C251.535 123.299 255.988 124.407 259.732 126.622C263.499 128.815 266.401 131.895 268.439 135.86C270.477 139.804 271.497 144.412 271.497 149.685C271.497 154.913 270.477 159.51 268.439 163.476C266.401 167.42 263.499 170.499 259.732 172.715C255.988 174.908 251.535 176.005 246.373 176.005ZM246.44 165.038C248.788 165.038 250.749 164.373 252.322 163.044C253.895 161.693 255.08 159.854 255.878 157.528C256.697 155.201 257.107 152.554 257.107 149.585C257.107 146.617 256.697 143.969 255.878 141.643C255.08 139.317 253.895 137.478 252.322 136.126C250.749 134.775 248.788 134.099 246.44 134.099C244.069 134.099 242.075 134.775 240.458 136.126C238.863 137.478 237.655 139.317 236.836 141.643C236.038 143.969 235.639 146.617 235.639 149.585C235.639 152.554 236.038 155.201 236.836 157.528C237.655 159.854 238.863 161.693 240.458 163.044C242.075 164.373 244.069 165.038 246.44 165.038Z" fill="black"/>
<path d="M616.743 82.0046C611.492 82.0046 606.972 80.9411 603.184 78.8143C599.418 76.6653 596.515 73.6301 594.477 69.7088C592.439 65.7653 591.42 61.1017 591.42 55.7182C591.42 50.4675 592.439 45.8594 594.477 41.8937C596.515 37.928 599.384 34.8375 603.084 32.622C606.806 30.4066 611.171 29.2988 616.178 29.2988C619.545 29.2988 622.68 29.8416 625.582 30.9272C628.507 31.9906 631.054 33.5968 633.226 35.7458C635.419 37.8948 637.125 40.5977 638.343 43.8544C639.562 47.0889 640.171 50.8774 640.171 55.2197V59.1078H597.069V50.3346H626.845C626.845 48.2964 626.402 46.4908 625.516 44.9178C624.63 43.3448 623.4 42.1152 621.827 41.2291C620.276 40.3207 618.471 39.8666 616.41 39.8666C614.261 39.8666 612.356 40.365 610.694 41.362C609.055 42.3368 607.77 43.655 606.839 45.3166C605.909 46.956 605.433 48.7838 605.411 50.7998V59.141C605.411 61.6667 605.876 63.8489 606.806 65.6877C607.759 67.5266 609.099 68.9444 610.827 69.9414C612.555 70.9384 614.605 71.4368 616.975 71.4368C618.548 71.4368 619.988 71.2153 621.295 70.7722C622.602 70.3291 623.721 69.6645 624.652 68.7783C625.582 67.8921 626.291 66.8065 626.779 65.5216L639.872 66.3856C639.207 69.5315 637.845 72.2787 635.784 74.6271C633.746 76.9533 631.11 78.77 627.875 80.0771C624.663 81.3621 620.952 82.0046 616.743 82.0046Z" fill="black"/>
<path d="M589.754 29.9639L571.908 81.008H555.957L538.111 29.9639H553.066L563.667 66.4857H564.198L574.766 29.9639H589.754Z" fill="black"/>
<path d="M518.539 81.0075V29.9634H532.696V81.0075H518.539ZM525.651 23.3835C523.546 23.3835 521.741 22.6856 520.234 21.2899C518.75 19.872 518.008 18.1772 518.008 16.2054C518.008 14.2558 518.75 12.5831 520.234 11.1874C521.741 9.76949 523.546 9.06055 525.651 9.06055C527.756 9.06055 529.55 9.76949 531.035 11.1874C532.541 12.5831 533.294 14.2558 533.294 16.2054C533.294 18.1772 532.541 19.872 531.035 21.2899C529.55 22.6856 527.756 23.3835 525.651 23.3835Z" fill="black"/>
<path d="M476.17 51.4972V81.0071H462.014V12.9482H475.772V38.9688H476.37C477.522 35.9558 479.383 33.5963 481.953 31.8904C484.523 30.1623 487.746 29.2983 491.623 29.2983C495.168 29.2983 498.259 30.0737 500.895 31.6245C503.554 33.1532 505.614 35.3576 507.076 38.2377C508.56 41.0956 509.292 44.5185 509.269 48.5063V81.0071H495.113V51.032C495.135 47.886 494.337 45.4379 492.72 43.6877C491.125 41.9375 488.887 41.0624 486.007 41.0624C484.08 41.0624 482.374 41.4723 480.889 42.292C479.427 43.1117 478.275 44.308 477.433 45.881C476.614 47.4318 476.193 49.3039 476.17 51.4972Z" fill="black"/>
<path d="M432.026 82.0046C426.797 82.0046 422.3 80.8968 418.533 78.6814C414.789 76.4438 411.909 73.3421 409.893 69.3765C407.899 65.4108 406.902 60.8469 406.902 55.6849C406.902 50.4564 407.91 45.8704 409.926 41.9269C411.965 37.9613 414.856 34.8707 418.6 32.6552C422.344 30.4176 426.797 29.2988 431.959 29.2988C436.412 29.2988 440.311 30.1075 443.657 31.7248C447.002 33.342 449.65 35.6129 451.599 38.5373C453.549 41.4617 454.623 44.8956 454.823 48.8392H441.463C441.087 46.2914 440.09 44.2421 438.473 42.6913C436.877 41.1183 434.784 40.3318 432.192 40.3318C429.998 40.3318 428.082 40.93 426.443 42.1263C424.825 43.3005 423.563 45.0175 422.654 47.2773C421.746 49.537 421.292 52.2731 421.292 55.4855C421.292 58.7423 421.735 61.5116 422.621 63.7935C423.529 66.0754 424.803 67.8146 426.443 69.0109C428.082 70.2072 429.998 70.8054 432.192 70.8054C433.809 70.8054 435.26 70.4731 436.545 69.8085C437.852 69.1438 438.927 68.1801 439.769 66.9173C440.633 65.6323 441.198 64.0926 441.463 62.2981H454.823C454.601 66.1973 453.538 69.6312 451.632 72.5999C449.749 75.5465 447.146 77.8506 443.823 79.5122C440.5 81.1738 436.567 82.0046 432.026 82.0046Z" fill="black"/>
<path d="M374.918 81.0077V29.9635H388.643V38.8697H389.174C390.105 35.7016 391.667 33.3089 393.86 31.6916C396.053 30.0521 398.579 29.2324 401.437 29.2324C402.146 29.2324 402.91 29.2767 403.73 29.3653C404.55 29.454 405.27 29.5758 405.89 29.7309V42.2925C405.225 42.0932 404.306 41.9159 403.132 41.7608C401.958 41.6058 400.883 41.5282 399.908 41.5282C397.826 41.5282 395.965 41.9824 394.325 42.8907C392.708 43.7769 391.423 45.0176 390.47 46.6127C389.54 48.2078 389.075 50.0466 389.075 52.1292V81.0077H374.918Z" fill="black"/>
<path d="M318.783 81.0071H303.363L326.858 12.9482H345.402L368.863 81.0071H353.444L336.396 28.5008H335.864L318.783 81.0071ZM317.819 54.2554H354.241V65.4878H317.819V54.2554Z" fill="black"/>
<path d="M277.532 12.9482V81.0071H263.375V12.9482H277.532Z" fill="black"/>
<path d="M225.517 81.9713C222.26 81.9713 219.358 81.4064 216.81 80.2765C214.262 79.1245 212.246 77.4296 210.762 75.192C209.299 72.9323 208.568 70.1186 208.568 66.7511C208.568 63.9154 209.089 61.5337 210.13 59.6063C211.172 57.6788 212.589 56.128 214.384 54.9538C216.178 53.7796 218.217 52.8934 220.499 52.2953C222.803 51.6971 225.218 51.2762 227.743 51.0325C230.712 50.7223 233.105 50.4343 234.921 50.1684C236.738 49.8804 238.056 49.4595 238.876 48.9056C239.696 48.3518 240.105 47.532 240.105 46.4465V46.2471C240.105 44.1424 239.441 42.514 238.111 41.362C236.804 40.21 234.943 39.6339 232.529 39.6339C229.981 39.6339 227.954 40.1989 226.447 41.3288C224.941 42.4365 223.944 43.8322 223.456 45.516L210.363 44.4526C211.028 41.3509 212.335 38.6702 214.284 36.4104C216.234 34.1285 218.748 32.3783 221.828 31.1598C224.93 29.9192 228.519 29.2988 232.595 29.2988C235.431 29.2988 238.145 29.6311 240.737 30.2958C243.351 30.9604 245.666 31.9906 247.682 33.3863C249.72 34.7821 251.327 36.5766 252.501 38.7699C253.675 40.9411 254.262 43.5442 254.262 46.5794V81.0076H240.836V73.9292H240.438C239.618 75.5244 238.521 76.9312 237.148 78.1497C235.774 79.346 234.124 80.2876 232.196 80.9744C230.269 81.639 228.042 81.9713 225.517 81.9713ZM229.571 72.2012C231.653 72.2012 233.492 71.7913 235.087 70.9716C236.683 70.1297 237.934 68.9998 238.843 67.5819C239.751 66.164 240.205 64.5578 240.205 62.7633V57.3465C239.762 57.6345 239.153 57.9004 238.377 58.1441C237.624 58.3656 236.771 58.5761 235.818 58.7755C234.866 58.9527 233.913 59.1189 232.961 59.274C232.008 59.4069 231.144 59.5287 230.368 59.6395C228.707 59.8832 227.256 60.2709 226.015 60.8026C224.774 61.3343 223.811 62.0544 223.124 62.9627C222.437 63.8489 222.094 64.9566 222.094 66.2859C222.094 68.2133 222.792 69.6866 224.187 70.7057C225.605 71.7027 227.4 72.2012 229.571 72.2012Z" fill="black"/>
<path d="M203.611 29.9637V40.5979H172.871V29.9637H203.611ZM179.85 17.7344H194.007V65.3224C194.007 66.6295 194.206 67.6486 194.605 68.3797C195.004 69.0887 195.557 69.5872 196.266 69.8752C196.997 70.1632 197.839 70.3072 198.792 70.3072C199.457 70.3072 200.121 70.2518 200.786 70.141C201.45 70.0081 201.96 69.9084 202.315 69.8419L204.541 80.3764C203.832 80.598 202.835 80.8528 201.55 81.1408C200.265 81.4509 198.703 81.6392 196.865 81.7057C193.453 81.8386 190.462 81.3845 187.892 80.3432C185.344 79.3019 183.361 77.6847 181.943 75.4914C180.525 73.2981 179.828 70.5287 179.85 67.1834V17.7344Z" fill="black"/>
<path d="M152.834 81.0075V29.9634H166.991V81.0075H152.834ZM159.946 23.3835C157.841 23.3835 156.036 22.6856 154.529 21.2899C153.045 19.872 152.303 18.1772 152.303 16.2054C152.303 14.2558 153.045 12.5831 154.529 11.1874C156.036 9.76949 157.841 9.06055 159.946 9.06055C162.051 9.06055 163.845 9.76949 165.33 11.1874C166.836 12.5831 167.589 14.2558 167.589 16.2054C167.589 18.1772 166.836 19.872 165.33 21.2899C163.845 22.6856 162.051 23.3835 159.946 23.3835Z" fill="black"/>
<path d="M118.484 101.213C113.898 101.213 109.966 100.581 106.687 99.3184C103.43 98.0777 100.838 96.3829 98.9108 94.2339C96.9834 92.0849 95.7317 89.67 95.1556 86.9893L108.249 85.2281C108.648 86.2472 109.279 87.1998 110.143 88.086C111.007 88.9722 112.148 89.6811 113.566 90.2128C115.006 90.7667 116.756 91.0436 118.817 91.0436C121.896 91.0436 124.433 90.2904 126.427 88.7839C128.443 87.2995 129.451 84.8071 129.451 81.3067V71.9685H128.853C128.232 73.3864 127.302 74.7268 126.061 75.9896C124.821 77.2524 123.225 78.2826 121.276 79.0802C119.326 79.8777 117 80.2765 114.297 80.2765C110.464 80.2765 106.975 79.3903 103.829 77.618C100.705 75.8234 98.213 73.0873 96.352 69.4097C94.5132 65.7099 93.5938 61.0353 93.5938 55.3858C93.5938 49.6035 94.5353 44.7738 96.4185 40.8967C98.3016 37.0197 100.805 34.1174 103.929 32.19C107.075 30.2626 110.52 29.2988 114.264 29.2988C117.122 29.2988 119.515 29.7862 121.442 30.761C123.369 31.7137 124.92 32.91 126.095 34.3501C127.291 35.768 128.21 37.1637 128.853 38.5373H129.384V29.9635H143.442V81.5061C143.442 85.8484 142.378 89.4817 140.251 92.4061C138.124 95.3305 135.178 97.5238 131.412 98.986C127.667 100.47 123.358 101.213 118.484 101.213ZM118.784 69.6423C121.065 69.6423 122.993 69.0774 124.566 67.9475C126.161 66.7954 127.379 65.156 128.221 63.0292C129.085 60.8802 129.517 58.3102 129.517 55.3194C129.517 52.3285 129.096 49.7364 128.255 47.5431C127.413 45.3277 126.194 43.6107 124.599 42.3922C123.004 41.1737 121.065 40.5644 118.784 40.5644C116.457 40.5644 114.497 41.1958 112.901 42.4586C111.306 43.6993 110.099 45.4274 109.279 47.6428C108.459 49.8583 108.05 52.4171 108.05 55.3194C108.05 58.2659 108.459 60.8137 109.279 62.9627C110.121 65.0895 111.328 66.7401 112.901 67.9143C114.497 69.0663 116.457 69.6423 118.784 69.6423Z" fill="black"/>
<path d="M71.8618 81.0075V29.9634H86.0186V81.0075H71.8618ZM78.9734 23.3835C76.8687 23.3835 75.0631 22.6856 73.5566 21.2899C72.0723 19.872 71.3301 18.1772 71.3301 16.2054C71.3301 14.2558 72.0723 12.5831 73.5566 11.1874C75.0631 9.76949 76.8687 9.06055 78.9734 9.06055C81.0781 9.06055 82.8726 9.76949 84.357 11.1874C85.8635 12.5831 86.6167 14.2558 86.6167 16.2054C86.6167 18.1772 85.8635 19.872 84.357 21.2899C82.8726 22.6856 81.0781 23.3835 78.9734 23.3835Z" fill="black"/>
<path d="M30.0423 81.0071H5.91602V12.9482H30.2417C37.0875 12.9482 42.9806 14.3107 47.9211 17.0358C52.8616 19.7386 56.6611 23.6267 59.3196 28.7001C62.0003 33.7735 63.3407 39.8439 63.3407 46.9112C63.3407 54.0007 62.0003 60.0932 59.3196 65.1887C56.6611 70.2843 52.8394 74.1946 47.8546 76.9196C42.892 79.6446 36.9546 81.0071 30.0423 81.0071ZM20.3054 68.6781H29.4442C33.6979 68.6781 37.2758 67.9248 40.1781 66.4183C43.1025 64.8896 45.2958 62.5302 46.758 59.3399C48.2423 56.1275 48.9845 51.9846 48.9845 46.9112C48.9845 41.8821 48.2423 37.7724 46.758 34.5822C45.2958 31.3919 43.1135 29.0435 40.2113 27.537C37.309 26.0305 33.7311 25.2773 29.4774 25.2773H20.3054V68.6781Z" fill="black"/>
<path d="M757.955 23.5664C757.955 26.6774 757.538 29.5383 756.704 32.1488C755.878 34.7594 754.61 37.1782 752.9 39.4051H747.809C748.459 38.5794 749.064 37.5702 749.623 36.3775C750.181 35.1848 750.669 33.8837 751.086 32.4741C751.503 31.0562 751.829 29.5883 752.062 28.0703C752.296 26.5523 752.413 25.051 752.413 23.5664C752.413 21.5897 752.208 19.5963 751.8 17.5863C751.399 15.5678 750.849 13.6996 750.148 11.9814C749.456 10.2549 748.676 8.84119 747.809 7.74023H752.9C754.61 9.96716 755.878 12.3859 756.704 14.9965C757.538 17.6071 757.955 20.4637 757.955 23.5664Z" fill="black"/>
<path d="M734.72 34.2007C733.494 34.2007 732.402 33.9881 731.443 33.5627C730.483 33.129 729.724 32.4909 729.166 31.6485C728.615 30.7978 728.34 29.7386 728.34 28.4708C728.34 27.4032 728.536 26.5066 728.928 25.781C729.32 25.0553 729.854 24.4715 730.529 24.0294C731.205 23.5874 731.972 23.2538 732.831 23.0286C733.699 22.8034 734.608 22.6449 735.559 22.5532C736.676 22.4364 737.577 22.328 738.261 22.2279C738.945 22.1195 739.441 21.961 739.75 21.7525C740.058 21.544 740.213 21.2354 740.213 20.8267V20.7516C740.213 19.9593 739.962 19.3462 739.462 18.9125C738.97 18.4788 738.269 18.262 737.36 18.262C736.401 18.262 735.638 18.4746 735.071 18.9C734.504 19.317 734.128 19.8425 733.945 20.4764L729.015 20.076C729.266 18.9084 729.758 17.8991 730.492 17.0484C731.226 16.1893 732.172 15.5304 733.332 15.0717C734.499 14.6046 735.851 14.3711 737.385 14.3711C738.453 14.3711 739.474 14.4962 740.45 14.7464C741.435 14.9966 742.306 15.3845 743.065 15.9099C743.832 16.4354 744.437 17.111 744.879 17.9367C745.321 18.7541 745.542 19.7341 745.542 20.8767V33.8379H740.488V31.1731H740.338C740.029 31.7736 739.616 32.3033 739.099 32.762C738.582 33.2124 737.961 33.5669 737.235 33.8254C736.509 34.0756 735.671 34.2007 734.72 34.2007ZM736.247 30.5226C737.031 30.5226 737.723 30.3683 738.323 30.0597C738.924 29.7427 739.395 29.3174 739.737 28.7836C740.079 28.2498 740.25 27.6451 740.25 26.9695V24.9302C740.083 25.0387 739.854 25.1387 739.562 25.2305C739.278 25.3139 738.957 25.3931 738.599 25.4682C738.24 25.5349 737.881 25.5975 737.523 25.6559C737.164 25.7059 736.839 25.7518 736.547 25.7935C735.921 25.8852 735.375 26.0312 734.908 26.2314C734.441 26.4315 734.078 26.7026 733.82 27.0446C733.561 27.3782 733.432 27.7952 733.432 28.2956C733.432 29.0213 733.694 29.5759 734.22 29.9596C734.754 30.3349 735.429 30.5226 736.247 30.5226Z" fill="black"/>
<path d="M726.475 14.6216V18.625H714.902V14.6216H726.475ZM717.53 10.0176H722.859V27.9331C722.859 28.4252 722.934 28.8088 723.084 29.0841C723.235 29.351 723.443 29.5386 723.71 29.6471C723.985 29.7555 724.302 29.8097 724.661 29.8097C724.911 29.8097 725.161 29.7888 725.411 29.7471C725.662 29.6971 725.853 29.6596 725.987 29.6345L726.825 33.6005C726.558 33.6839 726.183 33.7798 725.699 33.8882C725.215 34.005 724.627 34.0759 723.935 34.1009C722.651 34.1509 721.525 33.98 720.557 33.588C719.598 33.196 718.852 32.5871 718.318 31.7614C717.784 30.9357 717.521 29.8931 717.53 28.6337V10.0176Z" fill="black"/>
<path d="M704.66 34.2133C702.683 34.2133 700.982 33.8129 699.556 33.0122C698.138 32.2032 697.045 31.0605 696.278 29.5843C695.511 28.0996 695.127 26.3439 695.127 24.3172C695.127 22.3405 695.511 20.6057 696.278 19.1127C697.045 17.6197 698.125 16.4562 699.518 15.6222C700.919 14.7881 702.563 14.3711 704.448 14.3711C705.715 14.3711 706.895 14.5754 707.988 14.9841C709.089 15.3845 710.048 15.9892 710.866 16.7982C711.691 17.6072 712.333 18.6248 712.792 19.8508C713.251 21.0686 713.48 22.4948 713.48 24.1295V25.5933H697.254V22.2904H708.463C708.463 21.5231 708.297 20.8434 707.963 20.2512C707.629 19.659 707.167 19.1961 706.574 18.8625C705.991 18.5205 705.311 18.3495 704.535 18.3495C703.726 18.3495 703.009 18.5372 702.383 18.9125C701.766 19.2795 701.282 19.7758 700.932 20.4013C700.582 21.0185 700.402 21.7066 700.394 22.4656V25.6058C700.394 26.5566 700.569 27.3782 700.919 28.0704C701.278 28.7627 701.783 29.2965 702.433 29.6718C703.084 30.0472 703.855 30.2348 704.748 30.2348C705.34 30.2348 705.882 30.1514 706.374 29.9846C706.866 29.8178 707.287 29.5676 707.638 29.2339C707.988 28.9003 708.255 28.4916 708.438 28.0079L713.368 28.3332C713.118 29.5175 712.605 30.5518 711.829 31.4359C711.062 32.3116 710.069 32.9955 708.851 33.4876C707.642 33.9714 706.245 34.2133 704.66 34.2133Z" fill="black"/>
<path d="M674.309 33.838V8.21582H679.638V17.8492H679.801C680.034 17.332 680.372 16.8066 680.814 16.2728C681.265 15.7307 681.848 15.2803 682.566 14.9216C683.291 14.5546 684.192 14.3711 685.268 14.3711C686.669 14.3711 687.962 14.7381 689.146 15.4721C690.331 16.1977 691.277 17.2945 691.986 18.7624C692.695 20.222 693.05 22.0528 693.05 24.2547C693.05 26.3982 692.704 28.2081 692.011 29.6844C691.327 31.1523 690.393 32.2658 689.209 33.0248C688.033 33.7754 686.715 34.1508 685.256 34.1508C684.221 34.1508 683.341 33.9798 682.616 33.6378C681.898 33.2958 681.31 32.8663 680.852 32.3492C680.393 31.8237 680.043 31.2941 679.801 30.7603H679.563V33.838H674.309ZM679.526 24.2297C679.526 25.3723 679.684 26.369 680.001 27.2198C680.318 28.0705 680.777 28.7336 681.377 29.209C681.978 29.676 682.708 29.9096 683.567 29.9096C684.434 29.9096 685.168 29.6719 685.769 29.1965C686.369 28.7127 686.824 28.0455 687.132 27.1947C687.449 26.3357 687.608 25.3473 687.608 24.2297C687.608 23.1204 687.453 22.1445 687.145 21.3021C686.836 20.4597 686.382 19.8008 685.781 19.3254C685.18 18.85 684.442 18.6123 683.567 18.6123C682.699 18.6123 681.965 18.8417 681.365 19.3004C680.773 19.7591 680.318 20.4097 680.001 21.2521C679.684 22.0945 679.526 23.087 679.526 24.2297Z" fill="black"/>
<path d="M661.674 23.5664C661.674 20.4637 662.087 17.6071 662.912 14.9965C663.746 12.3859 665.018 9.96716 666.728 7.74023H671.82C671.17 8.56595 670.565 9.57515 670.006 10.7679C669.447 11.9522 668.959 13.2533 668.542 14.6712C668.125 16.0891 667.8 17.5571 667.566 19.075C667.333 20.5847 667.216 22.0818 667.216 23.5664C667.216 25.5431 667.416 27.5407 667.817 29.5591C668.225 31.5692 668.776 33.4375 669.468 35.164C670.169 36.8904 670.953 38.3042 671.82 39.4051H666.728C665.018 37.1782 663.746 34.7594 662.912 32.1488C662.087 29.5383 661.674 26.6774 661.674 23.5664Z" fill="black"/>
</svg>
